<svg width="1440" height="1024" viewBox="0 0 1440 1024" fill="none" xmlns="http://www.w3.org/2000/svg">
<rect x="1" y="1" width="1438" height="1022" rx="11" fill="#1B1B1B"/>
<rect width="1440" height="92" fill="#1A1919"/>
<path d="M1024 39.9091V53H1022.19L1015.53 43.3991H1015.41V53H1013.44V39.9091H1015.27L1021.93 49.5227H1022.05V39.9091H1024ZM1029.59 53.2173C1028.97 53.2173 1028.4 53.1023 1027.9 52.8722C1027.4 52.6378 1027 52.299 1026.71 51.8558C1026.42 51.4126 1026.27 50.8693 1026.27 50.2259C1026.27 49.6719 1026.38 49.2159 1026.59 48.858C1026.8 48.5 1027.09 48.2166 1027.45 48.0078C1027.82 47.799 1028.22 47.6413 1028.67 47.5348C1029.12 47.4283 1029.57 47.3473 1030.04 47.2919C1030.62 47.2237 1031.1 47.1683 1031.47 47.1257C1031.84 47.0788 1032.1 47.0043 1032.27 46.902C1032.43 46.7997 1032.52 46.6335 1032.52 46.4034V46.3587C1032.52 45.8004 1032.36 45.3679 1032.04 45.0611C1031.73 44.7543 1031.27 44.6009 1030.65 44.6009C1030.01 44.6009 1029.5 44.7436 1029.13 45.0291C1028.76 45.3104 1028.51 45.6236 1028.37 45.9688L1026.57 45.5597C1026.79 44.9631 1027.1 44.4815 1027.51 44.1151C1027.92 43.7443 1028.39 43.4759 1028.93 43.3097C1029.47 43.1392 1030.03 43.054 1030.62 43.054C1031.02 43.054 1031.43 43.1009 1031.87 43.1946C1032.31 43.2841 1032.73 43.4503 1033.11 43.6932C1033.5 43.9361 1033.82 44.2834 1034.06 44.7351C1034.31 45.1825 1034.43 45.7642 1034.43 46.4801V53H1032.57V51.6577H1032.49C1032.37 51.9048 1032.18 52.1477 1031.94 52.3864C1031.69 52.625 1031.37 52.8232 1030.98 52.9808C1030.59 53.1385 1030.13 53.2173 1029.59 53.2173ZM1030 51.6832C1030.53 51.6832 1030.98 51.5788 1031.36 51.37C1031.74 51.1612 1032.03 50.8885 1032.22 50.5518C1032.42 50.2109 1032.52 49.8466 1032.52 49.4588V48.1932C1032.46 48.2614 1032.32 48.3253 1032.13 48.3849C1031.94 48.4403 1031.72 48.4893 1031.47 48.532C1031.22 48.5703 1030.98 48.6065 1030.75 48.6406C1030.51 48.6705 1030.32 48.696 1030.16 48.7173C1029.79 48.7642 1029.45 48.843 1029.14 48.9538C1028.84 49.0646 1028.6 49.2244 1028.41 49.4332C1028.23 49.6378 1028.14 49.9105 1028.14 50.2514C1028.14 50.7244 1028.32 51.0824 1028.67 51.3253C1029.02 51.5639 1029.46 51.6832 1030 51.6832ZM1045.03 43.1818L1041.47 53H1039.42L1035.86 43.1818H1037.91L1040.39 50.7372H1040.5L1042.98 43.1818H1045.03ZM1051.74 53V39.9091H1059.95V41.6094H1053.72V45.598H1059.52V47.2919H1053.72V51.2997H1060.03V53H1051.74ZM1064.34 39.9091V53H1062.43V39.9091H1064.34ZM1071.15 53.1982C1070.18 53.1982 1069.35 52.9915 1068.65 52.5781C1067.95 52.1605 1067.42 51.5746 1067.04 50.8203C1066.66 50.0618 1066.47 49.1733 1066.47 48.1548C1066.47 47.1491 1066.66 46.2628 1067.04 45.4957C1067.42 44.7287 1067.94 44.13 1068.62 43.6996C1069.3 43.2692 1070.1 43.054 1071.01 43.054C1071.57 43.054 1072.1 43.1456 1072.62 43.3288C1073.14 43.5121 1073.61 43.7997 1074.02 44.1918C1074.44 44.5838 1074.76 45.093 1075 45.7195C1075.24 46.3416 1075.36 47.098 1075.36 47.9886V48.6662H1067.55V47.2344H1073.49C1073.49 46.7315 1073.38 46.2862 1073.18 45.8984C1072.98 45.5064 1072.69 45.1974 1072.32 44.9716C1071.95 44.7457 1071.52 44.6328 1071.03 44.6328C1070.49 44.6328 1070.02 44.7649 1069.62 45.0291C1069.22 45.2891 1068.92 45.63 1068.7 46.0518C1068.49 46.4695 1068.38 46.9233 1068.38 47.4134V48.532C1068.38 49.1882 1068.49 49.7464 1068.72 50.2067C1068.96 50.6669 1069.28 51.0185 1069.7 51.2614C1070.12 51.5 1070.61 51.6193 1071.17 51.6193C1071.53 51.6193 1071.86 51.5682 1072.16 51.4659C1072.46 51.3594 1072.71 51.2017 1072.93 50.9929C1073.15 50.7841 1073.31 50.5263 1073.43 50.2195L1075.24 50.5455C1075.09 51.0781 1074.83 51.5447 1074.46 51.9453C1074.09 52.3416 1073.62 52.6506 1073.06 52.8722C1072.5 53.0895 1071.86 53.1982 1071.15 53.1982ZM1077.48 53V43.1818H1079.31V44.7798H1079.44C1079.64 44.2386 1079.98 43.8168 1080.44 43.5142C1080.9 43.2074 1081.46 43.054 1082.11 43.054C1082.76 43.054 1083.31 43.2074 1083.76 43.5142C1084.2 43.821 1084.53 44.2429 1084.75 44.7798H1084.85C1085.08 44.2557 1085.46 43.8381 1085.97 43.527C1086.48 43.2116 1087.09 43.054 1087.8 43.054C1088.69 43.054 1089.41 43.3331 1089.98 43.8913C1090.54 44.4496 1090.83 45.2912 1090.83 46.4162V53H1088.92V46.5952C1088.92 45.9304 1088.73 45.4489 1088.37 45.1506C1088.01 44.8523 1087.58 44.7031 1087.07 44.7031C1086.45 44.7031 1085.97 44.8949 1085.62 45.2784C1085.28 45.6577 1085.11 46.1456 1085.11 46.7422V53H1083.2V46.4737C1083.2 45.9411 1083.03 45.5128 1082.7 45.1889C1082.37 44.8651 1081.94 44.7031 1081.4 44.7031C1081.04 44.7031 1080.71 44.799 1080.4 44.9908C1080.1 45.1783 1079.85 45.4403 1079.67 45.777C1079.48 46.1136 1079.39 46.5036 1079.39 46.9467V53H1077.48ZM1097.62 53.1982C1096.65 53.1982 1095.82 52.9915 1095.12 52.5781C1094.43 52.1605 1093.89 51.5746 1093.51 50.8203C1093.13 50.0618 1092.95 49.1733 1092.95 48.1548C1092.95 47.1491 1093.13 46.2628 1093.51 45.4957C1093.89 44.7287 1094.42 44.13 1095.09 43.6996C1095.78 43.2692 1096.57 43.054 1097.49 43.054C1098.04 43.054 1098.58 43.1456 1099.1 43.3288C1099.62 43.5121 1100.08 43.7997 1100.5 44.1918C1100.91 44.5838 1101.24 45.093 1101.47 45.7195C1101.71 46.3416 1101.83 47.098 1101.83 47.9886V48.6662H1094.03V47.2344H1099.96C1099.96 46.7315 1099.86 46.2862 1099.65 45.8984C1099.45 45.5064 1099.16 45.1974 1098.79 44.9716C1098.42 44.7457 1097.99 44.6328 1097.5 44.6328C1096.96 44.6328 1096.49 44.7649 1096.09 45.0291C1095.7 45.2891 1095.39 45.63 1095.17 46.0518C1094.96 46.4695 1094.85 46.9233 1094.85 47.4134V48.532C1094.85 49.1882 1094.97 49.7464 1095.2 50.2067C1095.43 50.6669 1095.76 51.0185 1096.18 51.2614C1096.59 51.5 1097.08 51.6193 1097.64 51.6193C1098 51.6193 1098.33 51.5682 1098.63 51.4659C1098.93 51.3594 1099.19 51.2017 1099.4 50.9929C1099.62 50.7841 1099.79 50.5263 1099.9 50.2195L1101.71 50.5455C1101.57 51.0781 1101.31 51.5447 1100.93 51.9453C1100.56 52.3416 1100.09 52.6506 1099.53 52.8722C1098.97 53.0895 1098.34 53.1982 1097.62 53.1982ZM1105.86 47.1705V53H1103.95V43.1818H1105.79V44.7798H1105.91C1106.13 44.2599 1106.49 43.8423 1106.97 43.527C1107.46 43.2116 1108.07 43.054 1108.8 43.054C1109.47 43.054 1110.06 43.1946 1110.56 43.4759C1111.06 43.7528 1111.45 44.1662 1111.73 44.7159C1112.01 45.2656 1112.15 45.9453 1112.15 46.755V53H1110.24V46.9851C1110.24 46.2734 1110.05 45.7173 1109.68 45.3168C1109.31 44.9119 1108.8 44.7095 1108.15 44.7095C1107.71 44.7095 1107.31 44.8054 1106.97 44.9972C1106.63 45.1889 1106.36 45.4702 1106.16 45.8409C1105.96 46.2074 1105.86 46.6506 1105.86 47.1705ZM1119.29 43.1818V44.7159H1113.93V43.1818H1119.29ZM1115.37 40.8295H1117.28V50.1172C1117.28 50.4879 1117.34 50.767 1117.45 50.9545C1117.56 51.1378 1117.7 51.2635 1117.87 51.3317C1118.05 51.3956 1118.25 51.4276 1118.46 51.4276C1118.61 51.4276 1118.74 51.4169 1118.86 51.3956C1118.97 51.3743 1119.06 51.3572 1119.13 51.3445L1119.47 52.9233C1119.36 52.9659 1119.2 53.0085 1119 53.0511C1118.8 53.098 1118.54 53.1236 1118.23 53.1278C1117.73 53.1364 1117.26 53.0469 1116.83 52.8594C1116.39 52.6719 1116.04 52.3821 1115.77 51.9901C1115.5 51.598 1115.37 51.1058 1115.37 50.5135V40.8295Z" fill="white"/>
<path d="M1155 39.9091V53H1153.19L1146.53 43.3991H1146.41V53H1144.44V39.9091H1146.27L1152.93 49.5227H1153.05V39.9091H1155ZM1160.59 53.2173C1159.97 53.2173 1159.4 53.1023 1158.9 52.8722C1158.4 52.6378 1158 52.299 1157.71 51.8558C1157.42 51.4126 1157.27 50.8693 1157.27 50.2259C1157.27 49.6719 1157.38 49.2159 1157.59 48.858C1157.8 48.5 1158.09 48.2166 1158.45 48.0078C1158.82 47.799 1159.22 47.6413 1159.67 47.5348C1160.12 47.4283 1160.57 47.3473 1161.04 47.2919C1161.62 47.2237 1162.1 47.1683 1162.47 47.1257C1162.84 47.0788 1163.1 47.0043 1163.27 46.902C1163.43 46.7997 1163.52 46.6335 1163.52 46.4034V46.3587C1163.52 45.8004 1163.36 45.3679 1163.04 45.0611C1162.73 44.7543 1162.27 44.6009 1161.65 44.6009C1161.01 44.6009 1160.5 44.7436 1160.13 45.0291C1159.76 45.3104 1159.51 45.6236 1159.37 45.9688L1157.57 45.5597C1157.79 44.9631 1158.1 44.4815 1158.51 44.1151C1158.92 43.7443 1159.39 43.4759 1159.93 43.3097C1160.47 43.1392 1161.03 43.054 1161.62 43.054C1162.02 43.054 1162.43 43.1009 1162.87 43.1946C1163.31 43.2841 1163.73 43.4503 1164.11 43.6932C1164.5 43.9361 1164.82 44.2834 1165.06 44.7351C1165.31 45.1825 1165.43 45.7642 1165.43 46.4801V53H1163.57V51.6577H1163.49C1163.37 51.9048 1163.18 52.1477 1162.94 52.3864C1162.69 52.625 1162.37 52.8232 1161.98 52.9808C1161.59 53.1385 1161.13 53.2173 1160.59 53.2173ZM1161 51.6832C1161.53 51.6832 1161.98 51.5788 1162.36 51.37C1162.74 51.1612 1163.03 50.8885 1163.22 50.5518C1163.42 50.2109 1163.52 49.8466 1163.52 49.4588V48.1932C1163.46 48.2614 1163.32 48.3253 1163.13 48.3849C1162.94 48.4403 1162.72 48.4893 1162.47 48.532C1162.22 48.5703 1161.98 48.6065 1161.75 48.6406C1161.51 48.6705 1161.32 48.696 1161.16 48.7173C1160.79 48.7642 1160.45 48.843 1160.14 48.9538C1159.84 49.0646 1159.6 49.2244 1159.41 49.4332C1159.23 49.6378 1159.14 49.9105 1159.14 50.2514C1159.14 50.7244 1159.32 51.0824 1159.67 51.3253C1160.02 51.5639 1160.46 51.6832 1161 51.6832ZM1176.03 43.1818L1172.47 53H1170.42L1166.86 43.1818H1168.91L1171.39 50.7372H1171.5L1173.98 43.1818H1176.03ZM1182.74 53V39.9091H1190.95V41.6094H1184.72V45.598H1190.52V47.2919H1184.72V51.2997H1191.03V53H1182.74ZM1195.34 39.9091V53H1193.43V39.9091H1195.34ZM1202.15 53.1982C1201.18 53.1982 1200.35 52.9915 1199.65 52.5781C1198.95 52.1605 1198.42 51.5746 1198.04 50.8203C1197.66 50.0618 1197.47 49.1733 1197.47 48.1548C1197.47 47.1491 1197.66 46.2628 1198.04 45.4957C1198.42 44.7287 1198.94 44.13 1199.62 43.6996C1200.3 43.2692 1201.1 43.054 1202.01 43.054C1202.57 43.054 1203.1 43.1456 1203.62 43.3288C1204.14 43.5121 1204.61 43.7997 1205.02 44.1918C1205.44 44.5838 1205.76 45.093 1206 45.7195C1206.24 46.3416 1206.36 47.098 1206.36 47.9886V48.6662H1198.55V47.2344H1204.49C1204.49 46.7315 1204.38 46.2862 1204.18 45.8984C1203.98 45.5064 1203.69 45.1974 1203.32 44.9716C1202.95 44.7457 1202.52 44.6328 1202.03 44.6328C1201.49 44.6328 1201.02 44.7649 1200.62 45.0291C1200.22 45.2891 1199.92 45.63 1199.7 46.0518C1199.49 46.4695 1199.38 46.9233 1199.38 47.4134V48.532C1199.38 49.1882 1199.49 49.7464 1199.72 50.2067C1199.96 50.6669 1200.28 51.0185 1200.7 51.2614C1201.12 51.5 1201.61 51.6193 1202.17 51.6193C1202.53 51.6193 1202.86 51.5682 1203.16 51.4659C1203.46 51.3594 1203.71 51.2017 1203.93 50.9929C1204.15 50.7841 1204.31 50.5263 1204.43 50.2195L1206.24 50.5455C1206.09 51.0781 1205.83 51.5447 1205.46 51.9453C1205.09 52.3416 1204.62 52.6506 1204.06 52.8722C1203.5 53.0895 1202.86 53.1982 1202.15 53.1982ZM1208.48 53V43.1818H1210.31V44.7798H1210.44C1210.64 44.2386 1210.98 43.8168 1211.44 43.5142C1211.9 43.2074 1212.46 43.054 1213.11 43.054C1213.76 43.054 1214.31 43.2074 1214.76 43.5142C1215.2 43.821 1215.53 44.2429 1215.75 44.7798H1215.85C1216.08 44.2557 1216.46 43.8381 1216.97 43.527C1217.48 43.2116 1218.09 43.054 1218.8 43.054C1219.69 43.054 1220.41 43.3331 1220.98 43.8913C1221.54 44.4496 1221.83 45.2912 1221.83 46.4162V53H1219.92V46.5952C1219.92 45.9304 1219.73 45.4489 1219.37 45.1506C1219.01 44.8523 1218.58 44.7031 1218.07 44.7031C1217.45 44.7031 1216.97 44.8949 1216.62 45.2784C1216.28 45.6577 1216.11 46.1456 1216.11 46.7422V53H1214.2V46.4737C1214.2 45.9411 1214.03 45.5128 1213.7 45.1889C1213.37 44.8651 1212.94 44.7031 1212.4 44.7031C1212.04 44.7031 1211.71 44.799 1211.4 44.9908C1211.1 45.1783 1210.85 45.4403 1210.67 45.777C1210.48 46.1136 1210.39 46.5036 1210.39 46.9467V53H1208.48ZM1228.62 53.1982C1227.65 53.1982 1226.82 52.9915 1226.12 52.5781C1225.43 52.1605 1224.89 51.5746 1224.51 50.8203C1224.13 50.0618 1223.95 49.1733 1223.95 48.1548C1223.95 47.1491 1224.13 46.2628 1224.51 45.4957C1224.89 44.7287 1225.42 44.13 1226.09 43.6996C1226.78 43.2692 1227.57 43.054 1228.49 43.054C1229.04 43.054 1229.58 43.1456 1230.1 43.3288C1230.62 43.5121 1231.08 43.7997 1231.5 44.1918C1231.91 44.5838 1232.24 45.093 1232.47 45.7195C1232.71 46.3416 1232.83 47.098 1232.83 47.9886V48.6662H1225.03V47.2344H1230.96C1230.96 46.7315 1230.86 46.2862 1230.65 45.8984C1230.45 45.5064 1230.16 45.1974 1229.79 44.9716C1229.42 44.7457 1228.99 44.6328 1228.5 44.6328C1227.96 44.6328 1227.49 44.7649 1227.09 45.0291C1226.7 45.2891 1226.39 45.63 1226.17 46.0518C1225.96 46.4695 1225.85 46.9233 1225.85 47.4134V48.532C1225.85 49.1882 1225.97 49.7464 1226.2 50.2067C1226.43 50.6669 1226.76 51.0185 1227.18 51.2614C1227.59 51.5 1228.08 51.6193 1228.64 51.6193C1229 51.6193 1229.33 51.5682 1229.63 51.4659C1229.93 51.3594 1230.19 51.2017 1230.4 50.9929C1230.62 50.7841 1230.79 50.5263 1230.9 50.2195L1232.71 50.5455C1232.57 51.0781 1232.31 51.5447 1231.93 51.9453C1231.56 52.3416 1231.09 52.6506 1230.53 52.8722C1229.97 53.0895 1229.34 53.1982 1228.62 53.1982ZM1236.86 47.1705V53H1234.95V43.1818H1236.79V44.7798H1236.91C1237.13 44.2599 1237.49 43.8423 1237.97 43.527C1238.46 43.2116 1239.07 43.054 1239.8 43.054C1240.47 43.054 1241.06 43.1946 1241.56 43.4759C1242.06 43.7528 1242.45 44.1662 1242.73 44.7159C1243.01 45.2656 1243.15 45.9453 1243.15 46.755V53H1241.24V46.9851C1241.24 46.2734 1241.05 45.7173 1240.68 45.3168C1240.31 44.9119 1239.8 44.7095 1239.15 44.7095C1238.71 44.7095 1238.31 44.8054 1237.97 44.9972C1237.63 45.1889 1237.36 45.4702 1237.16 45.8409C1236.96 46.2074 1236.86 46.6506 1236.86 47.1705ZM1250.29 43.1818V44.7159H1244.93V43.1818H1250.29ZM1246.37 40.8295H1248.28V50.1172C1248.28 50.4879 1248.34 50.767 1248.45 50.9545C1248.56 51.1378 1248.7 51.2635 1248.87 51.3317C1249.05 51.3956 1249.25 51.4276 1249.46 51.4276C1249.61 51.4276 1249.74 51.4169 1249.86 51.3956C1249.97 51.3743 1250.06 51.3572 1250.13 51.3445L1250.47 52.9233C1250.36 52.9659 1250.2 53.0085 1250 53.0511C1249.8 53.098 1249.54 53.1236 1249.23 53.1278C1248.73 53.1364 1248.26 53.0469 1247.83 52.8594C1247.39 52.6719 1247.04 52.3821 1246.77 51.9901C1246.5 51.598 1246.37 51.1058 1246.37 50.5135V40.8295Z" fill="white"/>
<path d="M1286 39.9091V53H1284.19L1277.53 43.3991H1277.41V53H1275.44V39.9091H1277.27L1283.93 49.5227H1284.05V39.9091H1286ZM1291.59 53.2173C1290.97 53.2173 1290.4 53.1023 1289.9 52.8722C1289.4 52.6378 1289 52.299 1288.71 51.8558C1288.42 51.4126 1288.27 50.8693 1288.27 50.2259C1288.27 49.6719 1288.38 49.2159 1288.59 48.858C1288.8 48.5 1289.09 48.2166 1289.45 48.0078C1289.82 47.799 1290.22 47.6413 1290.67 47.5348C1291.12 47.4283 1291.57 47.3473 1292.04 47.2919C1292.62 47.2237 1293.1 47.1683 1293.47 47.1257C1293.84 47.0788 1294.1 47.0043 1294.27 46.902C1294.43 46.7997 1294.52 46.6335 1294.52 46.4034V46.3587C1294.52 45.8004 1294.36 45.3679 1294.04 45.0611C1293.73 44.7543 1293.27 44.6009 1292.65 44.6009C1292.01 44.6009 1291.5 44.7436 1291.13 45.0291C1290.76 45.3104 1290.51 45.6236 1290.37 45.9688L1288.57 45.5597C1288.79 44.9631 1289.1 44.4815 1289.51 44.1151C1289.92 43.7443 1290.39 43.4759 1290.93 43.3097C1291.47 43.1392 1292.03 43.054 1292.62 43.054C1293.02 43.054 1293.43 43.1009 1293.87 43.1946C1294.31 43.2841 1294.73 43.4503 1295.11 43.6932C1295.5 43.9361 1295.82 44.2834 1296.06 44.7351C1296.31 45.1825 1296.43 45.7642 1296.43 46.4801V53H1294.57V51.6577H1294.49C1294.37 51.9048 1294.18 52.1477 1293.94 52.3864C1293.69 52.625 1293.37 52.8232 1292.98 52.9808C1292.59 53.1385 1292.13 53.2173 1291.59 53.2173ZM1292 51.6832C1292.53 51.6832 1292.98 51.5788 1293.36 51.37C1293.74 51.1612 1294.03 50.8885 1294.22 50.5518C1294.42 50.2109 1294.52 49.8466 1294.52 49.4588V48.1932C1294.46 48.2614 1294.32 48.3253 1294.13 48.3849C1293.94 48.4403 1293.72 48.4893 1293.47 48.532C1293.22 48.5703 1292.98 48.6065 1292.75 48.6406C1292.51 48.6705 1292.32 48.696 1292.16 48.7173C1291.79 48.7642 1291.45 48.843 1291.14 48.9538C1290.84 49.0646 1290.6 49.2244 1290.41 49.4332C1290.23 49.6378 1290.14 49.9105 1290.14 50.2514C1290.14 50.7244 1290.32 51.0824 1290.67 51.3253C1291.02 51.5639 1291.46 51.6832 1292 51.6832ZM1307.03 43.1818L1303.47 53H1301.42L1297.86 43.1818H1299.91L1302.39 50.7372H1302.5L1304.98 43.1818H1307.03ZM1313.74 53V39.9091H1321.95V41.6094H1315.72V45.598H1321.52V47.2919H1315.72V51.2997H1322.03V53H1313.74ZM1326.34 39.9091V53H1324.43V39.9091H1326.34ZM1333.15 53.1982C1332.18 53.1982 1331.35 52.9915 1330.65 52.5781C1329.95 52.1605 1329.42 51.5746 1329.04 50.8203C1328.66 50.0618 1328.47 49.1733 1328.47 48.1548C1328.47 47.1491 1328.66 46.2628 1329.04 45.4957C1329.42 44.7287 1329.94 44.13 1330.62 43.6996C1331.3 43.2692 1332.1 43.054 1333.01 43.054C1333.57 43.054 1334.1 43.1456 1334.62 43.3288C1335.14 43.5121 1335.61 43.7997 1336.02 44.1918C1336.44 44.5838 1336.76 45.093 1337 45.7195C1337.24 46.3416 1337.36 47.098 1337.36 47.9886V48.6662H1329.55V47.2344H1335.49C1335.49 46.7315 1335.38 46.2862 1335.18 45.8984C1334.98 45.5064 1334.69 45.1974 1334.32 44.9716C1333.95 44.7457 1333.52 44.6328 1333.03 44.6328C1332.49 44.6328 1332.02 44.7649 1331.62 45.0291C1331.22 45.2891 1330.92 45.63 1330.7 46.0518C1330.49 46.4695 1330.38 46.9233 1330.38 47.4134V48.532C1330.38 49.1882 1330.49 49.7464 1330.72 50.2067C1330.96 50.6669 1331.28 51.0185 1331.7 51.2614C1332.12 51.5 1332.61 51.6193 1333.17 51.6193C1333.53 51.6193 1333.86 51.5682 1334.16 51.4659C1334.46 51.3594 1334.71 51.2017 1334.93 50.9929C1335.15 50.7841 1335.31 50.5263 1335.43 50.2195L1337.24 50.5455C1337.09 51.0781 1336.83 51.5447 1336.46 51.9453C1336.09 52.3416 1335.62 52.6506 1335.06 52.8722C1334.5 53.0895 1333.86 53.1982 1333.15 53.1982ZM1339.48 53V43.1818H1341.31V44.7798H1341.44C1341.64 44.2386 1341.98 43.8168 1342.44 43.5142C1342.9 43.2074 1343.46 43.054 1344.11 43.054C1344.76 43.054 1345.31 43.2074 1345.76 43.5142C1346.2 43.821 1346.53 44.2429 1346.75 44.7798H1346.85C1347.08 44.2557 1347.46 43.8381 1347.97 43.527C1348.48 43.2116 1349.09 43.054 1349.8 43.054C1350.69 43.054 1351.41 43.3331 1351.98 43.8913C1352.54 44.4496 1352.83 45.2912 1352.83 46.4162V53H1350.92V46.5952C1350.92 45.9304 1350.73 45.4489 1350.37 45.1506C1350.01 44.8523 1349.58 44.7031 1349.07 44.7031C1348.45 44.7031 1347.97 44.8949 1347.62 45.2784C1347.28 45.6577 1347.11 46.1456 1347.11 46.7422V53H1345.2V46.4737C1345.2 45.9411 1345.03 45.5128 1344.7 45.1889C1344.37 44.8651 1343.94 44.7031 1343.4 44.7031C1343.04 44.7031 1342.71 44.799 1342.4 44.9908C1342.1 45.1783 1341.85 45.4403 1341.67 45.777C1341.48 46.1136 1341.39 46.5036 1341.39 46.9467V53H1339.48ZM1359.62 53.1982C1358.65 53.1982 1357.82 52.9915 1357.12 52.5781C1356.43 52.1605 1355.89 51.5746 1355.51 50.8203C1355.13 50.0618 1354.95 49.1733 1354.95 48.1548C1354.95 47.1491 1355.13 46.2628 1355.51 45.4957C1355.89 44.7287 1356.42 44.13 1357.09 43.6996C1357.78 43.2692 1358.57 43.054 1359.49 43.054C1360.04 43.054 1360.58 43.1456 1361.1 43.3288C1361.62 43.5121 1362.08 43.7997 1362.5 44.1918C1362.91 44.5838 1363.24 45.093 1363.47 45.7195C1363.71 46.3416 1363.83 47.098 1363.83 47.9886V48.6662H1356.03V47.2344H1361.96C1361.96 46.7315 1361.86 46.2862 1361.65 45.8984C1361.45 45.5064 1361.16 45.1974 1360.79 44.9716C1360.42 44.7457 1359.99 44.6328 1359.5 44.6328C1358.96 44.6328 1358.49 44.7649 1358.09 45.0291C1357.7 45.2891 1357.39 45.63 1357.17 46.0518C1356.96 46.4695 1356.85 46.9233 1356.85 47.4134V48.532C1356.85 49.1882 1356.97 49.7464 1357.2 50.2067C1357.43 50.6669 1357.76 51.0185 1358.18 51.2614C1358.59 51.5 1359.08 51.6193 1359.64 51.6193C1360 51.6193 1360.33 51.5682 1360.63 51.4659C1360.93 51.3594 1361.19 51.2017 1361.4 50.9929C1361.62 50.7841 1361.79 50.5263 1361.9 50.2195L1363.71 50.5455C1363.57 51.0781 1363.31 51.5447 1362.93 51.9453C1362.56 52.3416 1362.09 52.6506 1361.53 52.8722C1360.97 53.0895 1360.34 53.1982 1359.62 53.1982ZM1367.86 47.1705V53H1365.95V43.1818H1367.79V44.7798H1367.91C1368.13 44.2599 1368.49 43.8423 1368.97 43.527C1369.46 43.2116 1370.07 43.054 1370.8 43.054C1371.47 43.054 1372.06 43.1946 1372.56 43.4759C1373.06 43.7528 1373.45 44.1662 1373.73 44.7159C1374.01 45.2656 1374.15 45.9453 1374.15 46.755V53H1372.24V46.9851C1372.24 46.2734 1372.05 45.7173 1371.68 45.3168C1371.31 44.9119 1370.8 44.7095 1370.15 44.7095C1369.71 44.7095 1369.31 44.8054 1368.97 44.9972C1368.63 45.1889 1368.36 45.4702 1368.16 45.8409C1367.96 46.2074 1367.86 46.6506 1367.86 47.1705ZM1381.29 43.1818V44.7159H1375.93V43.1818H1381.29ZM1377.37 40.8295H1379.28V50.1172C1379.28 50.4879 1379.34 50.767 1379.45 50.9545C1379.56 51.1378 1379.7 51.2635 1379.87 51.3317C1380.05 51.3956 1380.25 51.4276 1380.46 51.4276C1380.61 51.4276 1380.74 51.4169 1380.86 51.3956C1380.97 51.3743 1381.06 51.3572 1381.13 51.3445L1381.47 52.9233C1381.36 52.9659 1381.2 53.0085 1381 53.0511C1380.8 53.098 1380.54 53.1236 1380.23 53.1278C1379.73 53.1364 1379.26 53.0469 1378.83 52.8594C1378.39 52.6719 1378.04 52.3821 1377.77 51.9901C1377.5 51.598 1377.37 51.1058 1377.37 50.5135V40.8295Z" fill="white"/>
<path d="M631.004 39.9091V53H629.189L622.535 43.3991H622.413V53H620.438V39.9091H622.266L628.927 49.5227H629.048V39.9091H631.004ZM636.589 53.2173C635.967 53.2173 635.405 53.1023 634.902 52.8722C634.399 52.6378 634.001 52.299 633.706 51.8558C633.417 51.4126 633.272 50.8693 633.272 50.2259C633.272 49.6719 633.378 49.2159 633.591 48.858C633.805 48.5 634.092 48.2166 634.454 48.0078C634.817 47.799 635.221 47.6413 635.669 47.5348C636.116 47.4283 636.572 47.3473 637.037 47.2919C637.625 47.2237 638.102 47.1683 638.469 47.1257C638.835 47.0788 639.101 47.0043 639.268 46.902C639.434 46.7997 639.517 46.6335 639.517 46.4034V46.3587C639.517 45.8004 639.359 45.3679 639.044 45.0611C638.733 44.7543 638.268 44.6009 637.65 44.6009C637.007 44.6009 636.5 44.7436 636.129 45.0291C635.763 45.3104 635.509 45.6236 635.368 45.9688L633.572 45.5597C633.785 44.9631 634.096 44.4815 634.506 44.1151C634.919 43.7443 635.394 43.4759 635.931 43.3097C636.468 43.1392 637.032 43.054 637.625 43.054C638.017 43.054 638.432 43.1009 638.871 43.1946C639.314 43.2841 639.728 43.4503 640.111 43.6932C640.499 43.9361 640.817 44.2834 641.064 44.7351C641.311 45.1825 641.434 45.7642 641.434 46.4801V53H639.568V51.6577H639.491C639.368 51.9048 639.182 52.1477 638.935 52.3864C638.688 52.625 638.371 52.8232 637.983 52.9808C637.595 53.1385 637.131 53.2173 636.589 53.2173ZM637.005 51.6832C637.533 51.6832 637.985 51.5788 638.36 51.37C638.739 51.1612 639.027 50.8885 639.223 50.5518C639.423 50.2109 639.523 49.8466 639.523 49.4588V48.1932C639.455 48.2614 639.323 48.3253 639.127 48.3849C638.935 48.4403 638.716 48.4893 638.469 48.532C638.221 48.5703 637.981 48.6065 637.746 48.6406C637.512 48.6705 637.316 48.696 637.158 48.7173C636.787 48.7642 636.449 48.843 636.142 48.9538C635.839 49.0646 635.596 49.2244 635.413 49.4332C635.234 49.6378 635.145 49.9105 635.145 50.2514C635.145 50.7244 635.319 51.0824 635.669 51.3253C636.018 51.5639 636.464 51.6832 637.005 51.6832ZM652.028 43.1818L648.467 53H646.422L642.855 43.1818H644.907L647.393 50.7372H647.496L649.976 43.1818H652.028ZM658.741 53V39.9091H666.948V41.6094H660.716V45.598H666.52V47.2919H660.716V51.2997H667.025V53H658.741ZM671.344 39.9091V53H669.433V39.9091H671.344ZM678.147 53.1982C677.18 53.1982 676.347 52.9915 675.648 52.5781C674.953 52.1605 674.416 51.5746 674.037 50.8203C673.662 50.0618 673.475 49.1733 673.475 48.1548C673.475 47.1491 673.662 46.2628 674.037 45.4957C674.416 44.7287 674.945 44.13 675.622 43.6996C676.304 43.2692 677.101 43.054 678.013 43.054C678.567 43.054 679.104 43.1456 679.624 43.3288C680.144 43.5121 680.61 43.7997 681.024 44.1918C681.437 44.5838 681.763 45.093 682.002 45.7195C682.24 46.3416 682.36 47.098 682.36 47.9886V48.6662H674.555V47.2344H680.487C680.487 46.7315 680.384 46.2862 680.18 45.8984C679.975 45.5064 679.688 45.1974 679.317 44.9716C678.95 44.7457 678.52 44.6328 678.026 44.6328C677.489 44.6328 677.02 44.7649 676.619 45.0291C676.223 45.2891 675.916 45.63 675.699 46.0518C675.486 46.4695 675.379 46.9233 675.379 47.4134V48.532C675.379 49.1882 675.494 49.7464 675.725 50.2067C675.959 50.6669 676.285 51.0185 676.703 51.2614C677.12 51.5 677.608 51.6193 678.166 51.6193C678.529 51.6193 678.859 51.5682 679.157 51.4659C679.455 51.3594 679.713 51.2017 679.931 50.9929C680.148 50.7841 680.314 50.5263 680.429 50.2195L682.238 50.5455C682.093 51.0781 681.833 51.5447 681.458 51.9453C681.088 52.3416 680.621 52.6506 680.058 52.8722C679.5 53.0895 678.863 53.1982 678.147 53.1982ZM684.48 53V43.1818H686.315V44.7798H686.436C686.641 44.2386 686.975 43.8168 687.44 43.5142C687.904 43.2074 688.46 43.054 689.108 43.054C689.764 43.054 690.314 43.2074 690.757 43.5142C691.205 43.821 691.535 44.2429 691.748 44.7798H691.85C692.085 44.2557 692.457 43.8381 692.969 43.527C693.48 43.2116 694.089 43.054 694.797 43.054C695.688 43.054 696.414 43.3331 696.977 43.8913C697.543 44.4496 697.827 45.2912 697.827 46.4162V53H695.915V46.5952C695.915 45.9304 695.734 45.4489 695.372 45.1506C695.01 44.8523 694.577 44.7031 694.075 44.7031C693.452 44.7031 692.969 44.8949 692.624 45.2784C692.278 45.6577 692.106 46.1456 692.106 46.7422V53H690.201V46.4737C690.201 45.9411 690.035 45.5128 689.702 45.1889C689.37 44.8651 688.938 44.7031 688.405 44.7031C688.043 44.7031 687.708 44.799 687.401 44.9908C687.099 45.1783 686.854 45.4403 686.666 45.777C686.483 46.1136 686.391 46.5036 686.391 46.9467V53H684.48ZM704.62 53.1982C703.653 53.1982 702.819 52.9915 702.121 52.5781C701.426 52.1605 700.889 51.5746 700.51 50.8203C700.135 50.0618 699.947 49.1733 699.947 48.1548C699.947 47.1491 700.135 46.2628 700.51 45.4957C700.889 44.7287 701.417 44.13 702.095 43.6996C702.777 43.2692 703.574 43.054 704.486 43.054C705.04 43.054 705.577 43.1456 706.096 43.3288C706.616 43.5121 707.083 43.7997 707.496 44.1918C707.91 44.5838 708.236 45.093 708.474 45.7195C708.713 46.3416 708.832 47.098 708.832 47.9886V48.6662H701.028V47.2344H706.959C706.959 46.7315 706.857 46.2862 706.653 45.8984C706.448 45.5064 706.16 45.1974 705.79 44.9716C705.423 44.7457 704.993 44.6328 704.498 44.6328C703.961 44.6328 703.493 44.7649 703.092 45.0291C702.696 45.2891 702.389 45.63 702.172 46.0518C701.959 46.4695 701.852 46.9233 701.852 47.4134V48.532C701.852 49.1882 701.967 49.7464 702.197 50.2067C702.432 50.6669 702.758 51.0185 703.175 51.2614C703.593 51.5 704.081 51.6193 704.639 51.6193C705.001 51.6193 705.331 51.5682 705.63 51.4659C705.928 51.3594 706.186 51.2017 706.403 50.9929C706.621 50.7841 706.787 50.5263 706.902 50.2195L708.711 50.5455C708.566 51.0781 708.306 51.5447 707.931 51.9453C707.56 52.3416 707.094 52.6506 706.531 52.8722C705.973 53.0895 705.336 53.1982 704.62 53.1982ZM712.864 47.1705V53H710.953V43.1818H712.787V44.7798H712.909C713.135 44.2599 713.488 43.8423 713.97 43.527C714.456 43.2116 715.067 43.054 715.804 43.054C716.473 43.054 717.059 43.1946 717.562 43.4759C718.065 43.7528 718.455 44.1662 718.732 44.7159C719.009 45.2656 719.147 45.9453 719.147 46.755V53H717.236V46.9851C717.236 46.2734 717.051 45.7173 716.68 45.3168C716.309 44.9119 715.8 44.7095 715.152 44.7095C714.709 44.7095 714.315 44.8054 713.97 44.9972C713.629 45.1889 713.358 45.4702 713.158 45.8409C712.962 46.2074 712.864 46.6506 712.864 47.1705ZM726.294 43.1818V44.7159H720.931V43.1818H726.294ZM722.369 40.8295H724.28V50.1172C724.28 50.4879 724.336 50.767 724.446 50.9545C724.557 51.1378 724.7 51.2635 724.875 51.3317C725.054 51.3956 725.248 51.4276 725.456 51.4276C725.61 51.4276 725.744 51.4169 725.859 51.3956C725.974 51.3743 726.064 51.3572 726.127 51.3445L726.473 52.9233C726.362 52.9659 726.204 53.0085 726 53.0511C725.795 53.098 725.539 53.1236 725.233 53.1278C724.73 53.1364 724.261 53.0469 723.826 52.8594C723.392 52.6719 723.04 52.3821 722.772 51.9901C722.503 51.598 722.369 51.1058 722.369 50.5135V40.8295Z" fill="white"/>
<path d="M762.004 39.9091V53H760.189L753.535 43.3991H753.413V53H751.438V39.9091H753.266L759.927 49.5227H760.048V39.9091H762.004ZM767.589 53.2173C766.967 53.2173 766.405 53.1023 765.902 52.8722C765.399 52.6378 765.001 52.299 764.706 51.8558C764.417 51.4126 764.272 50.8693 764.272 50.2259C764.272 49.6719 764.378 49.2159 764.591 48.858C764.805 48.5 765.092 48.2166 765.454 48.0078C765.817 47.799 766.221 47.6413 766.669 47.5348C767.116 47.4283 767.572 47.3473 768.037 47.2919C768.625 47.2237 769.102 47.1683 769.469 47.1257C769.835 47.0788 770.101 47.0043 770.268 46.902C770.434 46.7997 770.517 46.6335 770.517 46.4034V46.3587C770.517 45.8004 770.359 45.3679 770.044 45.0611C769.733 44.7543 769.268 44.6009 768.65 44.6009C768.007 44.6009 767.5 44.7436 767.129 45.0291C766.763 45.3104 766.509 45.6236 766.368 45.9688L764.572 45.5597C764.785 44.9631 765.096 44.4815 765.506 44.1151C765.919 43.7443 766.394 43.4759 766.931 43.3097C767.468 43.1392 768.032 43.054 768.625 43.054C769.017 43.054 769.432 43.1009 769.871 43.1946C770.314 43.2841 770.728 43.4503 771.111 43.6932C771.499 43.9361 771.817 44.2834 772.064 44.7351C772.311 45.1825 772.434 45.7642 772.434 46.4801V53H770.568V51.6577H770.491C770.368 51.9048 770.182 52.1477 769.935 52.3864C769.688 52.625 769.371 52.8232 768.983 52.9808C768.595 53.1385 768.131 53.2173 767.589 53.2173ZM768.005 51.6832C768.533 51.6832 768.985 51.5788 769.36 51.37C769.739 51.1612 770.027 50.8885 770.223 50.5518C770.423 50.2109 770.523 49.8466 770.523 49.4588V48.1932C770.455 48.2614 770.323 48.3253 770.127 48.3849C769.935 48.4403 769.716 48.4893 769.469 48.532C769.221 48.5703 768.981 48.6065 768.746 48.6406C768.512 48.6705 768.316 48.696 768.158 48.7173C767.787 48.7642 767.449 48.843 767.142 48.9538C766.839 49.0646 766.596 49.2244 766.413 49.4332C766.234 49.6378 766.145 49.9105 766.145 50.2514C766.145 50.7244 766.319 51.0824 766.669 51.3253C767.018 51.5639 767.464 51.6832 768.005 51.6832ZM783.028 43.1818L779.467 53H777.422L773.855 43.1818H775.907L778.393 50.7372H778.496L780.976 43.1818H783.028ZM789.741 53V39.9091H797.948V41.6094H791.716V45.598H797.52V47.2919H791.716V51.2997H798.025V53H789.741ZM802.344 39.9091V53H800.433V39.9091H802.344ZM809.147 53.1982C808.18 53.1982 807.347 52.9915 806.648 52.5781C805.953 52.1605 805.416 51.5746 805.037 50.8203C804.662 50.0618 804.475 49.1733 804.475 48.1548C804.475 47.1491 804.662 46.2628 805.037 45.4957C805.416 44.7287 805.945 44.13 806.622 43.6996C807.304 43.2692 808.101 43.054 809.013 43.054C809.567 43.054 810.104 43.1456 810.624 43.3288C811.144 43.5121 811.61 43.7997 812.024 44.1918C812.437 44.5838 812.763 45.093 813.002 45.7195C813.24 46.3416 813.36 47.098 813.36 47.9886V48.6662H805.555V47.2344H811.487C811.487 46.7315 811.384 46.2862 811.18 45.8984C810.975 45.5064 810.688 45.1974 810.317 44.9716C809.95 44.7457 809.52 44.6328 809.026 44.6328C808.489 44.6328 808.02 44.7649 807.619 45.0291C807.223 45.2891 806.916 45.63 806.699 46.0518C806.486 46.4695 806.379 46.9233 806.379 47.4134V48.532C806.379 49.1882 806.494 49.7464 806.725 50.2067C806.959 50.6669 807.285 51.0185 807.703 51.2614C808.12 51.5 808.608 51.6193 809.166 51.6193C809.529 51.6193 809.859 51.5682 810.157 51.4659C810.455 51.3594 810.713 51.2017 810.931 50.9929C811.148 50.7841 811.314 50.5263 811.429 50.2195L813.238 50.5455C813.093 51.0781 812.833 51.5447 812.458 51.9453C812.088 52.3416 811.621 52.6506 811.058 52.8722C810.5 53.0895 809.863 53.1982 809.147 53.1982ZM815.48 53V43.1818H817.315V44.7798H817.436C817.641 44.2386 817.975 43.8168 818.44 43.5142C818.904 43.2074 819.46 43.054 820.108 43.054C820.764 43.054 821.314 43.2074 821.757 43.5142C822.205 43.821 822.535 44.2429 822.748 44.7798H822.85C823.085 44.2557 823.457 43.8381 823.969 43.527C824.48 43.2116 825.089 43.054 825.797 43.054C826.688 43.054 827.414 43.3331 827.977 43.8913C828.543 44.4496 828.827 45.2912 828.827 46.4162V53H826.915V46.5952C826.915 45.9304 826.734 45.4489 826.372 45.1506C826.01 44.8523 825.577 44.7031 825.075 44.7031C824.452 44.7031 823.969 44.8949 823.624 45.2784C823.278 45.6577 823.106 46.1456 823.106 46.7422V53H821.201V46.4737C821.201 45.9411 821.035 45.5128 820.702 45.1889C820.37 44.8651 819.938 44.7031 819.405 44.7031C819.043 44.7031 818.708 44.799 818.401 44.9908C818.099 45.1783 817.854 45.4403 817.666 45.777C817.483 46.1136 817.391 46.5036 817.391 46.9467V53H815.48ZM835.62 53.1982C834.653 53.1982 833.819 52.9915 833.121 52.5781C832.426 52.1605 831.889 51.5746 831.51 50.8203C831.135 50.0618 830.947 49.1733 830.947 48.1548C830.947 47.1491 831.135 46.2628 831.51 45.4957C831.889 44.7287 832.417 44.13 833.095 43.6996C833.777 43.2692 834.574 43.054 835.486 43.054C836.04 43.054 836.577 43.1456 837.096 43.3288C837.616 43.5121 838.083 43.7997 838.496 44.1918C838.91 44.5838 839.236 45.093 839.474 45.7195C839.713 46.3416 839.832 47.098 839.832 47.9886V48.6662H832.028V47.2344H837.959C837.959 46.7315 837.857 46.2862 837.653 45.8984C837.448 45.5064 837.16 45.1974 836.79 44.9716C836.423 44.7457 835.993 44.6328 835.498 44.6328C834.961 44.6328 834.493 44.7649 834.092 45.0291C833.696 45.2891 833.389 45.63 833.172 46.0518C832.959 46.4695 832.852 46.9233 832.852 47.4134V48.532C832.852 49.1882 832.967 49.7464 833.197 50.2067C833.432 50.6669 833.758 51.0185 834.175 51.2614C834.593 51.5 835.081 51.6193 835.639 51.6193C836.001 51.6193 836.331 51.5682 836.63 51.4659C836.928 51.3594 837.186 51.2017 837.403 50.9929C837.621 50.7841 837.787 50.5263 837.902 50.2195L839.711 50.5455C839.566 51.0781 839.306 51.5447 838.931 51.9453C838.56 52.3416 838.094 52.6506 837.531 52.8722C836.973 53.0895 836.336 53.1982 835.62 53.1982ZM843.864 47.1705V53H841.953V43.1818H843.787V44.7798H843.909C844.135 44.2599 844.488 43.8423 844.97 43.527C845.456 43.2116 846.067 43.054 846.804 43.054C847.473 43.054 848.059 43.1946 848.562 43.4759C849.065 43.7528 849.455 44.1662 849.732 44.7159C850.009 45.2656 850.147 45.9453 850.147 46.755V53H848.236V46.9851C848.236 46.2734 848.051 45.7173 847.68 45.3168C847.309 44.9119 846.8 44.7095 846.152 44.7095C845.709 44.7095 845.315 44.8054 844.97 44.9972C844.629 45.1889 844.358 45.4702 844.158 45.8409C843.962 46.2074 843.864 46.6506 843.864 47.1705ZM857.294 43.1818V44.7159H851.931V43.1818H857.294ZM853.369 40.8295H855.28V50.1172C855.28 50.4879 855.336 50.767 855.446 50.9545C855.557 51.1378 855.7 51.2635 855.875 51.3317C856.054 51.3956 856.248 51.4276 856.456 51.4276C856.61 51.4276 856.744 51.4169 856.859 51.3956C856.974 51.3743 857.064 51.3572 857.127 51.3445L857.473 52.9233C857.362 52.9659 857.204 53.0085 857 53.0511C856.795 53.098 856.539 53.1236 856.233 53.1278C855.73 53.1364 855.261 53.0469 854.826 52.8594C854.392 52.6719 854.04 52.3821 853.772 51.9901C853.503 51.598 853.369 51.1058 853.369 50.5135V40.8295Z" fill="white"/>
<path d="M893.004 39.9091V53H891.189L884.535 43.3991H884.413V53H882.438V39.9091H884.266L890.927 49.5227H891.048V39.9091H893.004ZM898.589 53.2173C897.967 53.2173 897.405 53.1023 896.902 52.8722C896.399 52.6378 896.001 52.299 895.706 51.8558C895.417 51.4126 895.272 50.8693 895.272 50.2259C895.272 49.6719 895.378 49.2159 895.591 48.858C895.805 48.5 896.092 48.2166 896.454 48.0078C896.817 47.799 897.221 47.6413 897.669 47.5348C898.116 47.4283 898.572 47.3473 899.037 47.2919C899.625 47.2237 900.102 47.1683 900.469 47.1257C900.835 47.0788 901.101 47.0043 901.268 46.902C901.434 46.7997 901.517 46.6335 901.517 46.4034V46.3587C901.517 45.8004 901.359 45.3679 901.044 45.0611C900.733 44.7543 900.268 44.6009 899.65 44.6009C899.007 44.6009 898.5 44.7436 898.129 45.0291C897.763 45.3104 897.509 45.6236 897.368 45.9688L895.572 45.5597C895.785 44.9631 896.096 44.4815 896.506 44.1151C896.919 43.7443 897.394 43.4759 897.931 43.3097C898.468 43.1392 899.032 43.054 899.625 43.054C900.017 43.054 900.432 43.1009 900.871 43.1946C901.314 43.2841 901.728 43.4503 902.111 43.6932C902.499 43.9361 902.817 44.2834 903.064 44.7351C903.311 45.1825 903.434 45.7642 903.434 46.4801V53H901.568V51.6577H901.491C901.368 51.9048 901.182 52.1477 900.935 52.3864C900.688 52.625 900.371 52.8232 899.983 52.9808C899.595 53.1385 899.131 53.2173 898.589 53.2173ZM899.005 51.6832C899.533 51.6832 899.985 51.5788 900.36 51.37C900.739 51.1612 901.027 50.8885 901.223 50.5518C901.423 50.2109 901.523 49.8466 901.523 49.4588V48.1932C901.455 48.2614 901.323 48.3253 901.127 48.3849C900.935 48.4403 900.716 48.4893 900.469 48.532C900.221 48.5703 899.981 48.6065 899.746 48.6406C899.512 48.6705 899.316 48.696 899.158 48.7173C898.787 48.7642 898.449 48.843 898.142 48.9538C897.839 49.0646 897.596 49.2244 897.413 49.4332C897.234 49.6378 897.145 49.9105 897.145 50.2514C897.145 50.7244 897.319 51.0824 897.669 51.3253C898.018 51.5639 898.464 51.6832 899.005 51.6832ZM914.028 43.1818L910.467 53H908.422L904.855 43.1818H906.907L909.393 50.7372H909.496L911.976 43.1818H914.028ZM920.741 53V39.9091H928.948V41.6094H922.716V45.598H928.52V47.2919H922.716V51.2997H929.025V53H920.741ZM933.344 39.9091V53H931.433V39.9091H933.344ZM940.147 53.1982C939.18 53.1982 938.347 52.9915 937.648 52.5781C936.953 52.1605 936.416 51.5746 936.037 50.8203C935.662 50.0618 935.475 49.1733 935.475 48.1548C935.475 47.1491 935.662 46.2628 936.037 45.4957C936.416 44.7287 936.945 44.13 937.622 43.6996C938.304 43.2692 939.101 43.054 940.013 43.054C940.567 43.054 941.104 43.1456 941.624 43.3288C942.144 43.5121 942.61 43.7997 943.024 44.1918C943.437 44.5838 943.763 45.093 944.002 45.7195C944.24 46.3416 944.36 47.098 944.36 47.9886V48.6662H936.555V47.2344H942.487C942.487 46.7315 942.384 46.2862 942.18 45.8984C941.975 45.5064 941.688 45.1974 941.317 44.9716C940.95 44.7457 940.52 44.6328 940.026 44.6328C939.489 44.6328 939.02 44.7649 938.619 45.0291C938.223 45.2891 937.916 45.63 937.699 46.0518C937.486 46.4695 937.379 46.9233 937.379 47.4134V48.532C937.379 49.1882 937.494 49.7464 937.725 50.2067C937.959 50.6669 938.285 51.0185 938.703 51.2614C939.12 51.5 939.608 51.6193 940.166 51.6193C940.529 51.6193 940.859 51.5682 941.157 51.4659C941.455 51.3594 941.713 51.2017 941.931 50.9929C942.148 50.7841 942.314 50.5263 942.429 50.2195L944.238 50.5455C944.093 51.0781 943.833 51.5447 943.458 51.9453C943.088 52.3416 942.621 52.6506 942.058 52.8722C941.5 53.0895 940.863 53.1982 940.147 53.1982ZM946.48 53V43.1818H948.315V44.7798H948.436C948.641 44.2386 948.975 43.8168 949.44 43.5142C949.904 43.2074 950.46 43.054 951.108 43.054C951.764 43.054 952.314 43.2074 952.757 43.5142C953.205 43.821 953.535 44.2429 953.748 44.7798H953.85C954.085 44.2557 954.457 43.8381 954.969 43.527C955.48 43.2116 956.089 43.054 956.797 43.054C957.688 43.054 958.414 43.3331 958.977 43.8913C959.543 44.4496 959.827 45.2912 959.827 46.4162V53H957.915V46.5952C957.915 45.9304 957.734 45.4489 957.372 45.1506C957.01 44.8523 956.577 44.7031 956.075 44.7031C955.452 44.7031 954.969 44.8949 954.624 45.2784C954.278 45.6577 954.106 46.1456 954.106 46.7422V53H952.201V46.4737C952.201 45.9411 952.035 45.5128 951.702 45.1889C951.37 44.8651 950.938 44.7031 950.405 44.7031C950.043 44.7031 949.708 44.799 949.401 44.9908C949.099 45.1783 948.854 45.4403 948.666 45.777C948.483 46.1136 948.391 46.5036 948.391 46.9467V53H946.48ZM966.62 53.1982C965.653 53.1982 964.819 52.9915 964.121 52.5781C963.426 52.1605 962.889 51.5746 962.51 50.8203C962.135 50.0618 961.947 49.1733 961.947 48.1548C961.947 47.1491 962.135 46.2628 962.51 45.4957C962.889 44.7287 963.417 44.13 964.095 43.6996C964.777 43.2692 965.574 43.054 966.486 43.054C967.04 43.054 967.577 43.1456 968.096 43.3288C968.616 43.5121 969.083 43.7997 969.496 44.1918C969.91 44.5838 970.236 45.093 970.474 45.7195C970.713 46.3416 970.832 47.098 970.832 47.9886V48.6662H963.028V47.2344H968.959C968.959 46.7315 968.857 46.2862 968.653 45.8984C968.448 45.5064 968.16 45.1974 967.79 44.9716C967.423 44.7457 966.993 44.6328 966.498 44.6328C965.961 44.6328 965.493 44.7649 965.092 45.0291C964.696 45.2891 964.389 45.63 964.172 46.0518C963.959 46.4695 963.852 46.9233 963.852 47.4134V48.532C963.852 49.1882 963.967 49.7464 964.197 50.2067C964.432 50.6669 964.758 51.0185 965.175 51.2614C965.593 51.5 966.081 51.6193 966.639 51.6193C967.001 51.6193 967.331 51.5682 967.63 51.4659C967.928 51.3594 968.186 51.2017 968.403 50.9929C968.621 50.7841 968.787 50.5263 968.902 50.2195L970.711 50.5455C970.566 51.0781 970.306 51.5447 969.931 51.9453C969.56 52.3416 969.094 52.6506 968.531 52.8722C967.973 53.0895 967.336 53.1982 966.62 53.1982ZM974.864 47.1705V53H972.953V43.1818H974.787V44.7798H974.909C975.135 44.2599 975.488 43.8423 975.97 43.527C976.456 43.2116 977.067 43.054 977.804 43.054C978.473 43.054 979.059 43.1946 979.562 43.4759C980.065 43.7528 980.455 44.1662 980.732 44.7159C981.009 45.2656 981.147 45.9453 981.147 46.755V53H979.236V46.9851C979.236 46.2734 979.051 45.7173 978.68 45.3168C978.309 44.9119 977.8 44.7095 977.152 44.7095C976.709 44.7095 976.315 44.8054 975.97 44.9972C975.629 45.1889 975.358 45.4702 975.158 45.8409C974.962 46.2074 974.864 46.6506 974.864 47.1705ZM988.294 43.1818V44.7159H982.931V43.1818H988.294ZM984.369 40.8295H986.28V50.1172C986.28 50.4879 986.336 50.767 986.446 50.9545C986.557 51.1378 986.7 51.2635 986.875 51.3317C987.054 51.3956 987.248 51.4276 987.456 51.4276C987.61 51.4276 987.744 51.4169 987.859 51.3956C987.974 51.3743 988.064 51.3572 988.127 51.3445L988.473 52.9233C988.362 52.9659 988.204 53.0085 988 53.0511C987.795 53.098 987.539 53.1236 987.233 53.1278C986.73 53.1364 986.261 53.0469 985.826 52.8594C985.392 52.6719 985.04 52.3821 984.772 51.9901C984.503 51.598 984.369 51.1058 984.369 50.5135V40.8295Z" fill="white"/>
<path d="M24.9176 37.5455H28.1136L33.6705 51.1136H33.875L39.4318 37.5455H42.6278V55H40.1222V42.3693H39.9602L34.8125 54.9744H32.733L27.5852 42.3608H27.4233V55H24.9176V37.5455ZM52.8402 37.5455V55H50.1982V40.1875H50.0959L45.9197 42.9148V40.392L50.2749 37.5455H52.8402ZM63.3232 55.2386C62.255 55.2386 61.2947 55.0341 60.4425 54.625C59.5959 54.2102 58.9197 53.642 58.4141 52.9205C57.9084 52.1989 57.6385 51.375 57.6044 50.4489H60.1612C60.2237 51.1989 60.5561 51.8153 61.1584 52.2983C61.7607 52.7812 62.4822 53.0227 63.3232 53.0227C63.9936 53.0227 64.5874 52.8693 65.1044 52.5625C65.6271 52.25 66.0362 51.821 66.3317 51.2756C66.6328 50.7301 66.7834 50.108 66.7834 49.4091C66.7834 48.6989 66.63 48.0653 66.3232 47.5085C66.0163 46.9517 65.593 46.5142 65.0533 46.196C64.5192 45.8778 63.9055 45.7159 63.2124 45.7102C62.6839 45.7102 62.1527 45.8011 61.6186 45.983C61.0845 46.1648 60.6527 46.4034 60.3232 46.6989L57.9112 46.3409L58.8913 37.5455H68.4879V39.804H61.0817L60.5277 44.6875H60.63C60.9709 44.358 61.4226 44.0824 61.9851 43.8608C62.5533 43.6392 63.1612 43.5284 63.8089 43.5284C64.8714 43.5284 65.8175 43.7812 66.647 44.2869C67.4822 44.7926 68.1385 45.483 68.6158 46.358C69.0987 47.2273 69.3374 48.2273 69.3317 49.358C69.3374 50.4886 69.0817 51.4972 68.5646 52.3835C68.0533 53.2699 67.343 53.9687 66.4339 54.4801C65.5305 54.9858 64.4936 55.2386 63.3232 55.2386ZM72.4446 55V53.0909L78.3509 46.9716C78.9815 46.3068 79.5014 45.7244 79.9105 45.2244C80.3253 44.7187 80.6349 44.2386 80.8395 43.7841C81.044 43.3295 81.1463 42.8466 81.1463 42.3352C81.1463 41.7557 81.0099 41.2557 80.7372 40.8352C80.4645 40.4091 80.0923 40.0824 79.6207 39.8551C79.1491 39.6222 78.6179 39.5057 78.027 39.5057C77.402 39.5057 76.8565 39.6335 76.3906 39.8892C75.9247 40.1449 75.5668 40.5057 75.3168 40.9716C75.0668 41.4375 74.9418 41.983 74.9418 42.608H72.4276C72.4276 41.5455 72.6719 40.6165 73.1605 39.821C73.6491 39.0256 74.3196 38.4091 75.1719 37.9716C76.0241 37.5284 76.9929 37.3068 78.0781 37.3068C79.1747 37.3068 80.1406 37.5256 80.9759 37.9631C81.8168 38.3949 82.473 38.9858 82.9446 39.7358C83.4162 40.4801 83.652 41.321 83.652 42.2585C83.652 42.9062 83.5298 43.5398 83.2855 44.1591C83.0469 44.7784 82.6293 45.4687 82.0327 46.2301C81.4361 46.9858 80.6065 47.9034 79.544 48.983L76.0753 52.6136V52.7415H83.9332V55H72.4446Z" fill="white"/>
<rect x="121.5" y="268.5" width="1197" height="663" stroke="white"/>
<path d="M1317.23 268L126.301 930.334M126.301 268L1317.23 930.334" stroke="white"/>
<path d="M123.523 164.955V162.091H148.835V164.955H137.773V197H134.585V164.955H123.523ZM155.415 197V170.818H158.466V197H155.415ZM156.966 166.318C156.341 166.318 155.807 166.108 155.364 165.688C154.92 165.256 154.699 164.739 154.699 164.136C154.699 163.534 154.92 163.023 155.364 162.602C155.807 162.17 156.341 161.955 156.966 161.955C157.591 161.955 158.125 162.17 158.568 162.602C159.011 163.023 159.233 163.534 159.233 164.136C159.233 164.739 159.011 165.256 158.568 165.688C158.125 166.108 157.591 166.318 156.966 166.318ZM176.803 170.818V173.46H164.308V170.818H176.803ZM168.212 164.545H171.263V190.165C171.263 191.256 171.45 192.114 171.825 192.739C172.2 193.352 172.689 193.79 173.291 194.051C173.893 194.301 174.536 194.426 175.217 194.426C175.615 194.426 175.956 194.403 176.24 194.358C176.524 194.301 176.774 194.244 176.99 194.188L177.638 196.932C177.342 197.045 176.979 197.148 176.547 197.239C176.115 197.341 175.581 197.392 174.945 197.392C173.831 197.392 172.757 197.148 171.723 196.659C170.7 196.17 169.859 195.443 169.2 194.477C168.541 193.511 168.212 192.312 168.212 190.881V164.545ZM187.29 162.091V197H184.256V162.091H187.29ZM205.903 197.545C203.46 197.545 201.347 196.977 199.562 195.841C197.778 194.693 196.398 193.108 195.42 191.085C194.455 189.051 193.972 186.71 193.972 184.062C193.972 181.426 194.455 179.085 195.42 177.04C196.398 174.983 197.744 173.375 199.46 172.216C201.188 171.045 203.182 170.46 205.443 170.46C206.864 170.46 208.233 170.722 209.551 171.244C210.869 171.756 212.051 172.545 213.097 173.614C214.153 174.67 214.989 176.006 215.602 177.619C216.216 179.222 216.523 181.119 216.523 183.312V184.812H196.068V182.136H213.42C213.42 180.455 213.08 178.943 212.398 177.602C211.727 176.25 210.79 175.182 209.585 174.398C208.392 173.614 207.011 173.222 205.443 173.222C203.784 173.222 202.324 173.665 201.062 174.551C199.801 175.437 198.813 176.608 198.097 178.062C197.392 179.517 197.034 181.108 197.023 182.835V184.438C197.023 186.517 197.381 188.335 198.097 189.892C198.824 191.437 199.852 192.636 201.182 193.489C202.511 194.341 204.085 194.767 205.903 194.767C207.142 194.767 208.227 194.574 209.159 194.188C210.102 193.801 210.892 193.284 211.528 192.636C212.176 191.977 212.665 191.256 212.994 190.472L215.875 191.409C215.477 192.511 214.824 193.528 213.915 194.46C213.017 195.392 211.892 196.142 210.54 196.71C209.199 197.267 207.653 197.545 205.903 197.545Z" fill="white"/>
<rect x="1" y="1" width="1438" height="1022" rx="11" stroke="#C2C2C2" stroke-width="2"/>
</svg>
