<svg width="428" height="926" viewBox="0 0 428 926" fill="none" xmlns="http://www.w3.org/2000/svg">
<rect x="1" y="1" width="426" height="924" rx="11" fill="#1B1B1B"/>
<rect width="428" height="92" fill="#1A1919"/>
<path d="M24.9176 37.5455H28.1136L33.6705 51.1136H33.875L39.4318 37.5455H42.6278V55H40.1222V42.3693H39.9602L34.8125 54.9744H32.733L27.5852 42.3608H27.4233V55H24.9176V37.5455ZM52.8402 37.5455V55H50.1982V40.1875H50.0959L45.9197 42.9148V40.392L50.2749 37.5455H52.8402ZM63.3232 55.2386C62.255 55.2386 61.2947 55.0341 60.4425 54.625C59.5959 54.2102 58.9197 53.642 58.4141 52.9205C57.9084 52.1989 57.6385 51.375 57.6044 50.4489H60.1612C60.2237 51.1989 60.5561 51.8153 61.1584 52.2983C61.7607 52.7812 62.4822 53.0227 63.3232 53.0227C63.9936 53.0227 64.5874 52.8693 65.1044 52.5625C65.6271 52.25 66.0362 51.821 66.3317 51.2756C66.6328 50.7301 66.7834 50.108 66.7834 49.4091C66.7834 48.6989 66.63 48.0653 66.3232 47.5085C66.0163 46.9517 65.593 46.5142 65.0533 46.196C64.5192 45.8778 63.9055 45.7159 63.2124 45.7102C62.6839 45.7102 62.1527 45.8011 61.6186 45.983C61.0845 46.1648 60.6527 46.4034 60.3232 46.6989L57.9112 46.3409L58.8913 37.5455H68.4879V39.804H61.0817L60.5277 44.6875H60.63C60.9709 44.358 61.4226 44.0824 61.9851 43.8608C62.5533 43.6392 63.1612 43.5284 63.8089 43.5284C64.8714 43.5284 65.8175 43.7812 66.647 44.2869C67.4822 44.7926 68.1385 45.483 68.6158 46.358C69.0987 47.2273 69.3374 48.2273 69.3317 49.358C69.3374 50.4886 69.0817 51.4972 68.5646 52.3835C68.0533 53.2699 67.343 53.9687 66.4339 54.4801C65.5305 54.9858 64.4936 55.2386 63.3232 55.2386ZM72.4446 55V53.0909L78.3509 46.9716C78.9815 46.3068 79.5014 45.7244 79.9105 45.2244C80.3253 44.7187 80.6349 44.2386 80.8395 43.7841C81.044 43.3295 81.1463 42.8466 81.1463 42.3352C81.1463 41.7557 81.0099 41.2557 80.7372 40.8352C80.4645 40.4091 80.0923 40.0824 79.6207 39.8551C79.1491 39.6222 78.6179 39.5057 78.027 39.5057C77.402 39.5057 76.8565 39.6335 76.3906 39.8892C75.9247 40.1449 75.5668 40.5057 75.3168 40.9716C75.0668 41.4375 74.9418 41.983 74.9418 42.608H72.4276C72.4276 41.5455 72.6719 40.6165 73.1605 39.821C73.6491 39.0256 74.3196 38.4091 75.1719 37.9716C76.0241 37.5284 76.9929 37.3068 78.0781 37.3068C79.1747 37.3068 80.1406 37.5256 80.9759 37.9631C81.8168 38.3949 82.473 38.9858 82.9446 39.7358C83.4162 40.4801 83.652 41.321 83.652 42.2585C83.652 42.9062 83.5298 43.5398 83.2855 44.1591C83.0469 44.7784 82.6293 45.4687 82.0327 46.2301C81.4361 46.9858 80.6065 47.9034 79.544 48.983L76.0753 52.6136V52.7415H83.9332V55H72.4446Z" fill="white"/>
<rect x="377" y="38" width="25" height="2" fill="#C4C4C4"/>
<rect x="377" y="45" width="25" height="2" fill="#C4C4C4"/>
<rect x="377" y="52" width="25" height="2" fill="#C4C4C4"/>
<rect x="42.5" y="270.5" width="343" height="609" stroke="white"/>
<path d="M385.493 270L43.5221 878.47M43.5221 270L385.493 878.47" stroke="white"/>
<path d="M44.5227 174.955V172.091H69.8352V174.955H58.7727V207H55.5852V174.955H44.5227ZM76.4148 207V180.818H79.4659V207H76.4148ZM77.9659 176.318C77.3409 176.318 76.8068 176.108 76.3636 175.688C75.9205 175.256 75.6989 174.739 75.6989 174.136C75.6989 173.534 75.9205 173.023 76.3636 172.602C76.8068 172.17 77.3409 171.955 77.9659 171.955C78.5909 171.955 79.125 172.17 79.5682 172.602C80.0114 173.023 80.233 173.534 80.233 174.136C80.233 174.739 80.0114 175.256 79.5682 175.688C79.125 176.108 78.5909 176.318 77.9659 176.318ZM97.8026 180.818V183.46H85.3082V180.818H97.8026ZM89.2116 174.545H92.2628V200.165C92.2628 201.256 92.4503 202.114 92.8253 202.739C93.2003 203.352 93.6889 203.79 94.2912 204.051C94.8935 204.301 95.5355 204.426 96.2173 204.426C96.6151 204.426 96.956 204.403 97.2401 204.358C97.5241 204.301 97.7741 204.244 97.9901 204.188L98.6378 206.932C98.3423 207.045 97.9787 207.148 97.5469 207.239C97.1151 207.341 96.581 207.392 95.9446 207.392C94.831 207.392 93.7571 207.148 92.723 206.659C91.7003 206.17 90.8594 205.443 90.2003 204.477C89.5412 203.511 89.2116 202.312 89.2116 200.881V174.545ZM108.29 172.091V207H105.256V172.091H108.29ZM126.903 207.545C124.46 207.545 122.347 206.977 120.562 205.841C118.778 204.693 117.398 203.108 116.42 201.085C115.455 199.051 114.972 196.71 114.972 194.062C114.972 191.426 115.455 189.085 116.42 187.04C117.398 184.983 118.744 183.375 120.46 182.216C122.188 181.045 124.182 180.46 126.443 180.46C127.864 180.46 129.233 180.722 130.551 181.244C131.869 181.756 133.051 182.545 134.097 183.614C135.153 184.67 135.989 186.006 136.602 187.619C137.216 189.222 137.523 191.119 137.523 193.312V194.812H117.068V192.136H134.42C134.42 190.455 134.08 188.943 133.398 187.602C132.727 186.25 131.79 185.182 130.585 184.398C129.392 183.614 128.011 183.222 126.443 183.222C124.784 183.222 123.324 183.665 122.062 184.551C120.801 185.437 119.813 186.608 119.097 188.062C118.392 189.517 118.034 191.108 118.023 192.835V194.438C118.023 196.517 118.381 198.335 119.097 199.892C119.824 201.437 120.852 202.636 122.182 203.489C123.511 204.341 125.085 204.767 126.903 204.767C128.142 204.767 129.227 204.574 130.159 204.188C131.102 203.801 131.892 203.284 132.528 202.636C133.176 201.977 133.665 201.256 133.994 200.472L136.875 201.409C136.477 202.511 135.824 203.528 134.915 204.46C134.017 205.392 132.892 206.142 131.54 206.71C130.199 207.267 128.653 207.545 126.903 207.545Z" fill="white"/>
<rect x="1" y="1" width="426" height="924" rx="11" stroke="#C2C2C2" stroke-width="2"/>
</svg>
